<?xml version="1.0" standalone="no"?>
<!DOCTYPE svg PUBLIC "-//W3C//DTD SVG 20010904//EN"
 "http://www.w3.org/TR/2001/REC-SVG-20010904/DTD/svg10.dtd">
<svg version="1.0" xmlns="http://www.w3.org/2000/svg"
 width="512.000000pt" height="512.000000pt" viewBox="0 0 512.000000 512.000000"
 preserveAspectRatio="xMidYMid meet">
<metadata>
Created by potrace 1.14, written by Peter Selinger 2001-2017
</metadata>
<g transform="translate(0.000000,512.000000) scale(0.100000,-0.100000)"
fill="#000000" stroke="none">
<path d="M678 5102 c-102 -37 -180 -116 -212 -218 -15 -44 -16 -239 -14 -2084
l3 -2035 27 -55 c36 -73 94 -132 164 -166 51 -25 71 -29 178 -32 67 -2 122 -5
123 -6 1 -1 3 -51 4 -111 1 -60 6 -123 11 -140 32 -99 106 -186 195 -228 l48
-22 1605 0 c1570 0 1607 0 1650 20 98 42 166 117 194 216 15 50 16 252 14
2089 l-3 2035 -28 54 c-37 70 -97 128 -166 159 -48 22 -73 27 -181 30 -69 2
-126 5 -127 6 -1 0 -3 60 -6 131 -4 124 -6 133 -37 190 -39 73 -87 118 -160
154 l-55 26 -1590 2 c-1467 1 -1594 0 -1637 -15z m3247 -132 c49 -25 85 -64
106 -115 9 -23 12 -491 13 -2015 1 -1092 -2 -2003 -7 -2025 -11 -53 -43 -99
-92 -133 l-40 -27 -1582 -3 -1583 -2 -44 21 c-52 24 -94 74 -110 133 -9 31
-12 523 -11 2036 l1 1995 21 40 c32 61 89 104 152 114 19 3 730 6 1581 6
l1548 -1 47 -24z m489 -504 c57 -22 101 -72 119 -133 11 -40 13 -390 12 -2048
l-1 -2000 -22 -42 c-28 -53 -86 -101 -135 -110 -21 -5 -737 -8 -1590 -7 -1719
1 -1587 -4 -1657 66 -50 49 -62 90 -64 206 -1 57 2 106 5 108 4 2 630 4 1391
4 1541 0 1448 -4 1544 69 27 20 64 58 81 85 67 99 63 -38 62 1979 0 1616 2
1832 15 1837 35 12 197 2 240 -14z"/>
<path d="M2562 3816 c-24 -13 -32 -27 -32 -58 0 -56 12 -58 370 -58 250 1 329
4 342 14 26 19 30 62 8 88 -18 23 -18 23 -344 23 -184 0 -334 -4 -344 -9z"/>
<path d="M1435 3769 c-241 -62 -426 -244 -486 -477 -47 -181 -9 -401 100 -586
41 -71 166 -202 229 -241 24 -14 41 -29 38 -33 -4 -3 -45 -7 -91 -8 -138 -3
-232 -42 -318 -130 -42 -42 -90 -128 -103 -184 -12 -52 -13 -421 -1 -445 5
-11 15 -23 21 -27 6 -4 349 -8 762 -8 715 0 753 1 774 18 23 18 23 23 23 208
0 104 -4 209 -8 234 -19 114 -117 242 -225 292 -61 29 -145 44 -233 42 l-59
-1 79 76 c96 93 128 130 174 201 100 151 141 285 135 435 -8 198 -91 340 -219
377 -35 10 -52 23 -74 54 -125 182 -314 256 -518 203z m268 -143 c62 -31 110
-74 148 -135 40 -62 38 -74 -7 -55 -20 8 -52 14 -72 12 -32 -3 -41 -11 -81
-70 -126 -184 -288 -296 -477 -329 -88 -15 -104 -33 -105 -117 0 -58 -2 -63
-11 -37 -5 17 -13 39 -18 50 -16 38 -28 140 -25 215 4 81 30 167 72 239 61
105 201 211 323 246 79 22 187 14 253 -19z m313 -245 c105 -64 137 -309 63
-475 l-18 -41 -1 150 c-1 83 -4 161 -6 175 -8 46 -51 125 -87 162 -35 35 -36
37 -14 41 12 2 24 5 27 6 3 0 19 -8 36 -18z m-140 -113 c52 -56 57 -82 56
-258 -2 -186 -13 -241 -63 -311 -44 -61 -75 -87 -137 -116 -138 -65 -287 -38
-398 72 -58 57 -92 133 -96 215 l-3 52 75 22 c185 55 373 191 466 337 24 38
25 39 52 25 15 -8 37 -25 48 -38z m-296 -842 c30 0 78 3 106 7 l50 7 -1 -47
c-3 -78 -14 -110 -51 -142 -40 -36 -72 -46 -119 -38 -77 12 -122 76 -124 175
l-1 52 43 -7 c23 -4 67 -7 97 -7z m-242 -169 c58 -132 195 -196 333 -156 56
17 150 108 169 163 l12 39 97 -5 c129 -7 200 -41 257 -123 40 -57 47 -95 49
-257 2 -140 1 -158 -14 -159 -9 -1 -310 -2 -669 -3 l-654 -1 4 170 c3 151 6
174 25 210 60 112 146 161 293 164 l79 2 19 -44z"/>
<path d="M2550 3388 c-26 -24 -26 -62 0 -88 20 -20 33 -20 610 -20 l589 0 21
22 c27 29 25 62 -4 86 -24 18 -48 19 -610 19 -558 -1 -587 -1 -606 -19z"/>
<path d="M2570 2983 c-42 -15 -53 -70 -20 -101 19 -18 47 -19 609 -18 564 1
590 2 610 20 27 25 27 60 -1 86 -21 20 -31 20 -602 19 -320 0 -588 -3 -596 -6z"/>
<path d="M2550 2550 c-32 -32 -25 -77 15 -97 12 -6 246 -9 603 -9 l584 1 19
24 c24 30 24 56 -1 81 -20 20 -33 20 -610 20 -577 0 -590 0 -610 -20z"/>
<path d="M2600 2152 c-19 -2 -43 -11 -52 -19 -24 -21 -23 -66 1 -88 19 -16 60
-17 612 -17 l593 0 18 22 c23 28 23 52 0 80 l-18 22 -559 2 c-308 0 -576 0
-595 -2z"/>
<path d="M2578 1731 c-49 -15 -64 -78 -26 -105 20 -14 94 -16 610 -16 575 0
588 0 608 20 26 26 25 62 -1 86 -20 18 -47 19 -600 19 -318 0 -585 -2 -591 -4z"/>
</g>
</svg>
